<?xml version="1.0" encoding="utf-8"?>
<!-- Generator: Adobe Illustrator 19.0.0, SVG Export Plug-In . SVG Version: 6.00 Build 0)  -->
<svg version="1.1" id="Layer_1" xmlns="http://www.w3.org/2000/svg" xmlns:xlink="http://www.w3.org/1999/xlink" x="0px" y="0px"
	 viewBox="0 0 24 16.2" style="enable-background:new 0 0 24 16.2;" xml:space="preserve">
<style type="text/css">
	.st0{fill:#080506;}
</style>
<path id="XMLID_254_" class="st0" d="M22.5,1.3c-1-0.8-2.3-1.3-3.9-1.3c-1.3,0-2.3,0.3-3.2,0.9C15,1.3,14.5,1.9,14,2.6V0.4H9.8v8.4
	c0,1-0.1,1.8-0.4,2.4c-0.5,1.1-1.5,1.7-2.8,1.7c-1.1,0-1.8-0.4-2.2-1.2c-0.2-0.4-0.3-1.1-0.3-2V0.4H0v9.3c0,1.8,0.2,3.1,0.7,4
	c0.8,1.6,2.3,2.5,4.6,2.5c0.8,0,1.5-0.1,2.1-0.3c0.6-0.2,1.2-0.6,1.8-1.2c0.2-0.2,0.4-0.4,0.5-0.6c0.1-0.2,0.2-0.4,0.3-0.4v2.2h0H14
	h0.1V7.5c0-1,0.1-1.7,0.4-2.4C15,4,15.9,3.4,17.3,3.4c1.1,0,1.9,0.4,2.3,1.2c0.2,0.4,0.3,1.1,0.3,1.9v9.4H24V5.4
	C24,3.5,23.5,2.1,22.5,1.3z"/>
</svg>
