<svg xmlns="http://www.w3.org/2000/svg" width="1473.863" height="205.68"><path d="M49.35 173.84a17.511 17.511 0 0 1-17.511-17.511V44.574H17.511A17.511 17.511 0 0 0 0 62.085v126.083a17.511 17.511 0 0 0 17.511 17.511h232.743a17.511 17.511 0 0 0 17.511-17.511V173.84z" fill="#bac0c4"/><path d="M294.829 0H62.086a17.511 17.511 0 0 0-17.511 17.511v126.083a17.83 17.83 0 0 0 17.83 17.83h232.424a17.511 17.511 0 0 0 17.511-17.511V17.511A17.511 17.511 0 0 0 294.829 0M157.285 110.163V50.942l61.449 29.61zM422.185 112.71V48.395a6.049 6.049 0 0 1 6.686-6.686h19.74a6.049 6.049 0 0 1 6.686 6.686v64.315q0 12.417 6.049 18.148a24.2 24.2 0 0 0 17.193 5.731 21.332 21.332 0 0 0 16.875-7.641q6.686-7.641 6.049-23.561V48.395a6.049 6.049 0 0 1 6.686-6.686h19.74a6.049 6.049 0 0 1 6.686 6.686v106.342a6.049 6.049 0 0 1-6.686 6.686h-19.74a6.049 6.049 0 0 1-6.686-6.686v-3.821a40.436 40.436 0 0 1-14.328 9.552 47.122 47.122 0 0 1-17.83 3.5q-47.122 0-47.122-51.261M666.071 52.216q11.462 13.054 11.462 38.207v64.315a6.049 6.049 0 0 1-6.686 6.686H650.47a6.049 6.049 0 0 1-6.686-6.686V90.423q0-24.2-23.242-24.2a21.332 21.332 0 0 0-16.557 7.639q-6.686 7.641-6.368 23.879v56.992a6.049 6.049 0 0 1-6.686 6.686h-19.422a6.049 6.049 0 0 1-6.686-6.686V47.762a6.049 6.049 0 0 1 6.686-6.686h19.422a6.049 6.049 0 0 1 6.686 6.686v4.139a42.664 42.664 0 0 1 14.646-9.239 47.122 47.122 0 0 1 17.193-3.5q24.516 0 35.978 13.054" fill="#fff"/><path d="M707.78 149.325a5.731 5.731 0 0 1-2.865-4.776 7.641 7.641 0 0 1 1.592-4.457l9.233-12.417a6.368 6.368 0 0 1 5.094-2.866 7.323 7.323 0 0 1 3.821.955 82.463 82.463 0 0 0 16.556 7 59.539 59.539 0 0 0 16.875 2.547 22.924 22.924 0 0 0 12.417-3.184 8.915 8.915 0 0 0 4.776-7.641 6.368 6.368 0 0 0-4.457-6.049 49.033 49.033 0 0 0-11.78-3.184l-6.686-.955a127.035 127.035 0 0 1-23.879-5.731 44.575 44.575 0 0 1-15.92-10.507 29.292 29.292 0 0 1-7.96-21.65q0-20.377 14.646-29.292a66.862 66.862 0 0 1 35.341-7.96 77.05 77.05 0 0 1 44.575 13.372 5.413 5.413 0 0 1 3.184 4.776 7.641 7.641 0 0 1-1.592 4.457l-9.233 12.1a6.368 6.368 0 0 1-5.094 2.865 8.278 8.278 0 0 1-4.139-.955 60.813 60.813 0 0 0-28.655-7.96 23.243 23.243 0 0 0-10.825 2.547 7.323 7.323 0 0 0-4.776 6.368q0 4.776 6.049 7a86.6 86.6 0 0 0 16.556 3.821 177.024 177.024 0 0 1 25.79 6.049 37.252 37.252 0 0 1 14.964 9.87 32.476 32.476 0 0 1 7 21.969q0 18.785-12.736 28.973t-36.3 10.188a89.149 89.149 0 0 1-50.942-14.964M861.243 156.011a65.27 65.27 0 0 1-23.875-22.924 59.857 59.857 0 0 1-.318-62.723 63.677 63.677 0 0 1 23.879-22.924 65.589 65.589 0 0 1 32.476-8.278 66.862 66.862 0 0 1 31.521 7.323 65.588 65.588 0 0 1 23.879 21.332 6.367 6.367 0 0 1 1.274 3.5q0 3.5-4.457 5.094l-17.193 6.686-3.184.637a7.323 7.323 0 0 1-5.731-3.5 32.157 32.157 0 0 0-26.108-12.736 31.2 31.2 0 0 0-23.561 9.552 33.431 33.431 0 0 0-9.233 24.2 35.34 35.34 0 0 0 4.139 17.193 30.883 30.883 0 0 0 11.78 12.1 34.7 34.7 0 0 0 43.619-8.278 7.641 7.641 0 0 1 6.05-3.184l3.184.637 15.6 6.049q4.457 1.592 4.457 5.094a6.368 6.368 0 0 1-.955 3.184q-17.511 29.292-54.763 29.292a65.27 65.27 0 0 1-32.476-7.323M1047.184 40.753a6.686 6.686 0 0 1 1.592 5.094v18.467q0 6.049-6.686 6.686a42.663 42.663 0 0 0-14.009 3.5 36.614 36.614 0 0 0-12.736 8.915q-7.96 8.6-7.96 24.834v46.485a6.049 6.049 0 0 1-6.686 6.686h-19.422a6.049 6.049 0 0 1-6.686-6.686V47.758a6.05 6.05 0 0 1 6.686-6.686h19.422a6.049 6.049 0 0 1 6.686 6.686v9.552a42.028 42.028 0 0 1 15.6-12.736 55.4 55.4 0 0 1 19.1-5.094 5.731 5.731 0 0 1 4.776 1.592M1094.623 157.921a60.812 60.812 0 0 1-24.516-19.74q-10.825-14.009-10.825-36.614a61.766 61.766 0 0 1 8.6-32.794 58.585 58.585 0 0 1 23.561-21.969 70.682 70.682 0 0 1 33.113-7.641 66.224 66.224 0 0 1 30.247 7 59.857 59.857 0 0 1 22.924 20.377 48.717 48.717 0 0 1 7.641 16.875 95.191 95.191 0 0 1 1.592 19.422 12.1 12.1 0 0 1-2.547 7.641 7.959 7.959 0 0 1-6.686 3.184h-85.969a23.243 23.243 0 0 0 12.1 16.556 42.664 42.664 0 0 0 20.7 5.094 39.8 39.8 0 0 0 15.283-2.547 36.616 36.616 0 0 0 11.462-7.323 8.278 8.278 0 0 1 5.094-2.547 7 7 0 0 1 3.82 1.274l14.328 8.278a5.731 5.731 0 0 1 3.5 4.776 7.642 7.642 0 0 1-1.592 4.139 66.225 66.225 0 0 1-51.581 22.609 74.5 74.5 0 0 1-29.929-6.368m7.641-83.418a23.242 23.242 0 0 0-9.552 16.238h59.54a23.561 23.561 0 0 0-4.457-11.144 28.018 28.018 0 0 0-9.87-8.6 29.61 29.61 0 0 0-14.328-3.184 35.341 35.341 0 0 0-21.969 6.686M1243.311 157.921a60.813 60.813 0 0 1-24.516-19.74q-10.825-14.009-10.825-36.614a61.767 61.767 0 0 1 8.6-32.794 58.583 58.583 0 0 1 23.561-21.969 70.684 70.684 0 0 1 33.113-7.641 66.225 66.225 0 0 1 30.247 7 59.857 59.857 0 0 1 22.924 20.377 48.717 48.717 0 0 1 7.641 16.875 95.193 95.193 0 0 1 1.592 19.422 12.1 12.1 0 0 1-2.547 7.641 7.96 7.96 0 0 1-6.686 3.184h-85.969a23.242 23.242 0 0 0 12.1 16.556 42.665 42.665 0 0 0 20.7 5.094 39.8 39.8 0 0 0 15.283-2.547 36.614 36.614 0 0 0 11.462-7.323 8.278 8.278 0 0 1 5.094-2.547 7 7 0 0 1 3.821 1.274l14.328 8.278a5.731 5.731 0 0 1 3.5 4.776 7.641 7.641 0 0 1-1.592 4.139 66.225 66.225 0 0 1-51.582 22.609 74.5 74.5 0 0 1-29.929-6.368m7.641-83.418a23.242 23.242 0 0 0-9.552 16.238h59.857a23.561 23.561 0 0 0-4.457-11.144 28.019 28.019 0 0 0-9.87-8.6 29.61 29.61 0 0 0-14.328-3.184 35.341 35.341 0 0 0-21.969 6.686M1462.363 52.216q11.462 13.054 11.462 38.207v64.315a6.049 6.049 0 0 1-6.686 6.686h-20.377a6.049 6.049 0 0 1-6.686-6.686V90.423q0-24.2-23.242-24.2a21.332 21.332 0 0 0-16.557 7.639q-6.688 7.646-6.368 23.884v56.992a6.049 6.049 0 0 1-6.686 6.686h-19.422a6.049 6.049 0 0 1-6.686-6.686V47.762a6.049 6.049 0 0 1 6.686-6.686h19.422a6.049 6.049 0 0 1 6.686 6.686v4.139a42.664 42.664 0 0 1 14.646-9.239 47.12 47.12 0 0 1 17.193-3.5q24.516 0 35.978 13.054" fill="#bac0c4"/></svg>